<?xml version="1.0" encoding="utf-8"?>
<svg version="1.1" xmlns:xlink="http://www.w3.org/1999/xlink" width="27px" height="24px" xmlns="http://www.w3.org/2000/svg">
  <g transform="matrix(1 0 0 1 -13 -8 )">
    <path d="M 26.666015625 19.55625  C 26.888671875 19.79375  27 20.075  27 20.4  L 27 22.8  C 27 23.125  26.888671875 23.40625  26.666015625 23.64375  C 26.443359375 23.88125  26.1796875 24  25.875 24  L 1.125 24  C 0.8203125 24  0.556640625 23.88125  0.333984375 23.64375  C 0.111328125 23.40625  0 23.125  0 22.8  L 0 20.4  C 0 20.075  0.111328125 19.79375  0.333984375 19.55625  C 0.556640625 19.31875  0.8203125 19.2  1.125 19  L 25.875 19  C 26.1796875 19.2  26.443359375 19.31875  26.666015625 19.55625  Z M 26.666015625 9.95625  C 26.888671875 10.19375  27 10.475  27 10.8  L 27 13.2  C 27 13.525  26.888671875 13.80625  26.666015625 14.04375  C 26.443359375 14.28125  26.1796875 14.4  25.875 14  L 1.125 14  C 0.8203125 14.4  0.556640625 14.28125  0.333984375 14.04375  C 0.111328125 13.80625  0 13.525  0 13.2  L 0 10.8  C 0 10.475  0.111328125 10.19375  0.333984375 9.95625  C 0.556640625 9.71875  0.8203125 9.6  1.125 10  L 25.875 10  C 26.1796875 9.6  26.443359375 9.71875  26.666015625 9.95625  Z M 26.666015625 0.356250000000001  C 26.888671875 0.593749999999998  27 0.874999999999998  27 1.2  L 27 3.6  C 27 3.925  26.888671875 4.20625  26.666015625 4.44375  C 26.443359375 4.68125  26.1796875 4.8  25.875 5  L 1.125 5  C 0.8203125 4.8  0.556640625 4.68125  0.333984375 4.44375  C 0.111328125 4.20625  0 3.925  0 3.6  L 0 1.2  C 0 0.874999999999998  0.111328125 0.593749999999998  0.333984375 0.356250000000001  C 0.556640625 0.118749999999999  0.8203125 0  1.125 0  L 25.875 0  C 26.1796875 0  26.443359375 0.118749999999999  26.666015625 0.356250000000001  Z " fill-rule="nonzero" fill="#ffffff" stroke="none" transform="matrix(1 0 0 1 13 8 )" />
  </g>
</svg>