<?xml version="1.0" encoding="utf-8"?>
<svg version="1.1" xmlns:xlink="http://www.w3.org/1999/xlink" width="45px" height="78px" xmlns="http://www.w3.org/2000/svg">
  <g transform="matrix(1 0 0 1 -299 -339 )">
    <path d="M 44.2268041237113 4.68937875751503  C 44.7422680412371 5.21042084168336  45 5.80961923847694  45 6.48697394789579  C 45 7.16432865731463  44.7422680412371 7.76352705410821  44.2268041237113 8.28456913827655  L 13.840206185567 39  L 44.2268041237113 69.7154308617234  C 44.7422680412371 70.2364729458918  45 70.8356713426854  45 71.5130260521042  C 45 72.190380761523  44.7422680412371 72.7895791583166  44.2268041237113 73.310621242485  L 40.360824742268 77.2184368737475  C 39.8453608247423 77.7394789579158  39.2525773195876 78  38.5824742268041 78  C 37.9123711340206 78  37.319587628866 77.7394789579158  36.8041237113402 77.2184368737475  L 0.77319587628866 40.7975951903808  C 0.257731958762887 40.2765531062124  0 39.6773547094188  0 39  C 0 38.3226452905812  0.257731958762887 37.7234468937876  0.77319587628866 37.2024048096192  L 36.8041237113402 0.781563126252506  C 37.319587628866 0.260521042084166  37.9123711340206 0  38.5824742268041 0  C 39.2525773195876 0  39.8453608247423 0.260521042084166  40.360824742268 0.781563126252506  L 44.2268041237113 4.68937875751503  Z " fill-rule="nonzero" fill="#ffffff" stroke="none" transform="matrix(1 0 0 1 299 339 )" />
  </g>
</svg>