<?xml version="1.0" encoding="utf-8"?>
<svg version="1.1" xmlns:xlink="http://www.w3.org/1999/xlink" width="105px" height="146px" xmlns="http://www.w3.org/2000/svg">
  <g transform="matrix(1 0 0 1 -220 -80 )">
    <path d="M 220 80  L 325 80  L 325 226  L 220 226  L 220 80  " fill-rule="nonzero" fill="#cccccc" stroke="none" />
    <path d="M 227 87  L 318 87  L 318 219  L 227 219  L 227 87  " fill-rule="nonzero" fill="#ffffff" stroke="none" />
    <path d="M 282.475 117.65  C 278.065 117.65  274.6 114.185  274.6 109.775  C 274.6 105.365  278.065 101.9  282.475 101.9  C 286.885 101.9  290.35 105.365  290.35 109.775  C 290.35 114.185  286.885 117.65  282.475 117.65  " fill-rule="nonzero" fill="#cccccc" stroke="none" />
    <path d="M 230 217  L 230 147.15  L 251.5 115.4  L 281.6 140.8  L 298.8 134.45  L 316 140.8  L 316 217  L 230 217  " fill-rule="nonzero" fill="#169bd5" stroke="none" />
  </g>
</svg>