<?xml version="1.0" encoding="utf-8"?>
<svg version="1.1" xmlns:xlink="http://www.w3.org/1999/xlink" width="257px" height="320px" xmlns="http://www.w3.org/2000/svg">
  <g transform="matrix(1 0 0 1 -59 -380 )">
    <path d="M 59 380  L 316 380  L 316 700  L 59 700  L 59 380  " fill-rule="nonzero" fill="#cccccc" stroke="none" />
    <path d="M 77 398  L 298 398  L 298 682  L 77 682  L 77 398  " fill-rule="nonzero" fill="#ffffff" stroke="none" />
    <path d="M 211.915 466.55  C 201.121 466.55  192.64 458.069  192.64 447.275  C 192.64 436.481  201.121 428  211.915 428  C 222.709 428  231.19 436.481  231.19 447.275  C 231.19 458.069  222.709 466.55  211.915 466.55  " fill-rule="nonzero" fill="#cccccc" stroke="none" />
    <path d="M 84 676  L 84 526.95  L 136 459.2  L 208.8 513.4  L 250.4 499.85  L 292 513.4  L 292 676  L 84 676  " fill-rule="nonzero" fill="#169bd5" stroke="none" />
  </g>
</svg>