<?xml version="1.0" encoding="utf-8"?>
<svg version="1.1" xmlns:xlink="http://www.w3.org/1999/xlink" width="25px" height="25px" xmlns="http://www.w3.org/2000/svg">
  <g transform="matrix(1 0 0 1 -335 -8 )">
    <path d="M 6.2255859375 1.67643229166667  C 8.14073350694444 0.558810763888887  10.2322048611111 0  12.5 0  C 14.7677951388889 0  16.8592664930556 0.558810763888887  18.7744140625 1.67643229166667  C 20.6895616319444 2.79405381944444  22.2059461805556 4.31043836805556  23.3235677083333 6.2255859375  C 24.4411892361111 8.14073350694444  25 10.2322048611111  25 12.5  C 25 14.7677951388889  24.4411892361111 16.8592664930556  23.3235677083333 18.7744140625  C 22.2059461805556 20.6895616319444  20.6895616319444 22.2059461805556  18.7744140625 23.3235677083333  C 16.8592664930556 24.4411892361111  14.7677951388889 25  12.5 25  C 10.2322048611111 25  8.14073350694444 24.4411892361111  6.2255859375 23.3235677083333  C 4.31043836805556 22.2059461805556  2.79405381944444 20.6895616319444  1.67643229166667 18.7744140625  C 0.558810763888889 16.8592664930556  0 14.7677951388889  0 12.5  C 0 10.2322048611111  0.558810763888889 8.14073350694444  1.67643229166667 6.2255859375  C 2.79405381944444 4.31043836805556  4.31043836805556 2.79405381944444  6.2255859375 1.67643229166667  Z M 17.6595052083333 8.28450520833333  C 17.4750434027778 8.23025173611111  17.2417534722222 8.29535590277778  16.9596354166667 8.47981770833333  C 16.9379340277778 8.49066840277778  16.8863932291667 8.54220920138889  16.8050130208333 8.63444010416667  C 16.7236328125 8.72667100694444  16.650390625 8.77821180555556  16.5852864583333 8.7890625  C 16.6069878472222 8.7890625  16.6314019097222 8.76193576388889  16.6585286458333 8.70768229166667  C 16.6856553819444 8.65342881944444  16.7127821180556 8.59375  16.7399088541667 8.52864583333333  C 16.7670355902778 8.46354166666667  16.7860243055556 8.42556423611111  16.796875 8.41471354166667  C 16.8619791666667 8.33875868055556  16.9813368055556 8.25737847222222  17.1549479166667 8.17057291666667  C 17.3068576388889 8.10546875  17.5889756944444 8.04036458333333  18.0013020833333 7.97526041666667  C 18.3702256944444 7.88845486111111  18.6469184027778 7.94813368055556  18.8313802083333 8.154296875  C 18.8096788194444 8.13259548611111  18.8612196180556 8.06206597222222  18.9860026041667 7.94270833333333  C 19.1107855902778 7.82335069444444  19.189453125 7.75824652777778  19.2220052083333 7.74739583333333  C 19.2545572916667 7.72569444444444  19.3359375 7.70128038194444  19.4661458333333 7.67415364583333  C 19.5963541666667 7.64702690972222  19.677734375 7.60633680555556  19.7102864583333 7.55208333333333  L 19.7428385416667 7.19401041666667  C 19.6126302083333 7.20486111111111  19.5176866319444 7.16688368055556  19.4580078125 7.080078125  C 19.3983289930556 6.99327256944444  19.3630642361111 6.87934027777778  19.3522135416667 6.73828125  C 19.3522135416667 6.75998263888889  19.3196614583333 6.80338541666667  19.2545572916667 6.86848958333333  C 19.2545572916667 6.79253472222222  19.2301432291667 6.74913194444444  19.1813151041667 6.73828125  C 19.1324869791667 6.72743055555556  19.0700954861111 6.73285590277778  18.994140625 6.75455729166667  C 18.9181857638889 6.77625868055556  18.8693576388889 6.78168402777778  18.84765625 6.77083333333333  C 18.7391493055556 6.73828125  18.6577690972222 6.69759114583333  18.603515625 6.64876302083333  C 18.5492621527778 6.59993489583333  18.505859375 6.51041666666667  18.4733072916667 6.38020833333333  C 18.4407552083333 6.25  18.4190538194444 6.16861979166667  18.408203125 6.13606770833333  C 18.3865017361111 6.08181423611111  18.3349609375 6.02213541666667  18.2535807291667 5.95703125  C 18.1722005208333 5.89192708333333  18.1206597222222 5.83767361111111  18.0989583333333 5.79427083333333  C 18.0881076388889 5.77256944444444  18.0745442708333 5.74273003472222  18.0582682291667 5.70475260416667  C 18.0419921875 5.66677517361111  18.0257161458333 5.63151041666667  18.0094401041667 5.59895833333333  C 17.9931640625 5.56640625  17.9714626736111 5.53656684027778  17.9443359375 5.50944010416667  C 17.9172092013889 5.48231336805556  17.8873697916667 5.46875  17.8548177083333 5.46875  C 17.822265625 5.46875  17.7842881944444 5.49587673611111  17.7408854166667 5.55013020833333  C 17.6974826388889 5.60438368055556  17.6567925347222 5.65863715277778  17.6188151041667 5.712890625  C 17.5808376736111 5.76714409722222  17.5564236111111 5.79427083333333  17.5455729166667 5.79427083333333  C 17.5130208333333 5.77256944444444  17.48046875 5.76443142361111  17.4479166666667 5.76985677083333  C 17.4153645833333 5.77528211805556  17.3909505208333 5.78070746527778  17.3746744791667 5.7861328125  C 17.3583984375 5.79155815972222  17.333984375 5.80783420138889  17.3014322916667 5.8349609375  C 17.2688802083333 5.86208767361111  17.2417534722222 5.88107638888889  17.2200520833333 5.89192708333333  C 17.1875 5.91362847222222  17.1413845486111 5.92990451388889  17.0817057291667 5.94075520833333  C 17.0220269097222 5.95160590277778  16.9759114583333 5.96245659722222  16.943359375 5.97330729166667  C 17.1061197916667 5.91905381944444  17.1006944444444 5.859375  16.9270833333333 5.79427083333333  C 16.8185763888889 5.75086805555556  16.7317708333333 5.73459201388889  16.6666666666667 5.74544270833333  C 16.7643229166667 5.70203993055556  16.8050130208333 5.63693576388889  16.7887369791667 5.55013020833333  C 16.7724609375 5.46332465277778  16.7263454861111 5.38736979166667  16.650390625 5.322265625  L 16.7317708333333 5.322265625  C 16.7209201388889 5.27886284722222  16.6748046875 5.23274739583333  16.5934244791667 5.18391927083333  C 16.5120442708333 5.13509114583333  16.4171006944444 5.08897569444444  16.30859375 5.04557291666667  C 16.2000868055556 5.00217013888889  16.1295572916667 4.96961805555556  16.0970052083333 4.94791666666667  C 16.0101996527778 4.89366319444444  15.8257378472222 4.84212239583333  15.5436197916667 4.79329427083333  C 15.2615017361111 4.74446614583333  15.0824652777778 4.74175347222222  15.0065104166667 4.78515625  C 14.9522569444444 4.85026041666667  14.9278428819444 4.9072265625  14.9332682291667 4.9560546875  C 14.9386935763889 5.0048828125  14.9603949652778 5.08083767361111  14.9983723958333 5.18391927083333  C 15.0363498263889 5.28700086805556  15.0553385416667 5.35481770833333  15.0553385416667 5.38736979166667  C 15.0661892361111 5.45247395833333  15.0363498263889 5.52300347222222  14.9658203125 5.59895833333333  C 14.8952907986111 5.67491319444444  14.8600260416667 5.74001736111111  14.8600260416667 5.79427083333333  C 14.8600260416667 5.87022569444444  14.9359809027778 5.95431857638889  15.087890625 6.04654947916667  C 15.2398003472222 6.13878038194444  15.2940538194444 6.25542534722222  15.2506510416667 6.396484375  C 15.2180989583333 6.48328993055556  15.1312934027778 6.57009548611111  14.990234375 6.65690104166667  C 14.8491753472222 6.74370659722222  14.7623697916667 6.80881076388889  14.7298177083333 6.85221354166667  C 14.6755642361111 6.93901909722222  14.6674262152778 7.03938802083333  14.7054036458333 7.1533203125  C 14.7433810763889 7.26725260416667  14.8003472222222 7.35677083333333  14.8763020833333 7.421875  C 14.8980034722222 7.44357638888889  14.9061414930556 7.46527777777778  14.9007161458333 7.48697916666667  C 14.8952907986111 7.50868055555556  14.8763020833333 7.53309461805556  14.84375 7.56022135416667  C 14.8111979166667 7.58734809027778  14.7813585069444 7.60904947916667  14.7542317708333 7.62532552083333  C 14.7271050347222 7.6416015625  14.6918402777778 7.66059027777778  14.6484375 7.68229166666667  L 14.599609375 7.71484375  C 14.4802517361111 7.76909722222222  14.3690321180556 7.73654513888889  14.2659505208333 7.6171875  C 14.1628689236111 7.49782986111111  14.0896267361111 7.35677083333333  14.0462239583333 7.19401041666667  C 13.9702690972222 6.92274305555556  13.8834635416667 6.75998263888889  13.7858072916667 6.70572916666667  C 13.5362413194444 6.61892361111111  13.37890625 6.62434895833333  13.3138020833333 6.72200520833333  C 13.2595486111111 6.58094618055556  13.037109375 6.43988715277778  12.646484375 6.298828125  C 12.3752170138889 6.201171875  12.060546875 6.17947048611111  11.7024739583333 6.23372395833333  C 11.767578125 6.22287326388889  11.767578125 6.14149305555556  11.7024739583333 5.98958333333333  C 11.6265190972222 5.82682291666667  11.5234375 5.76171875  11.3932291666667 5.79427083333333  C 11.42578125 5.72916666666667  11.4474826388889 5.63422309027778  11.4583333333333 5.50944010416667  C 11.4691840277778 5.38465711805556  11.474609375 5.31141493055556  11.474609375 5.28971354166667  C 11.5071614583333 5.14865451388889  11.572265625 5.02387152777778  11.669921875 4.91536458333333  C 11.6807725694444 4.90451388888889  11.71875 4.8583984375  11.7838541666667 4.77701822916667  C 11.8489583333333 4.69563802083333  11.9004991319444 4.62239583333333  11.9384765625 4.55729166666667  C 11.9764539930556 4.4921875  11.9791666666667 4.45963541666667  11.9466145833333 4.45963541666667  C 12.3263888888889 4.50303819444444  12.59765625 4.443359375  12.7604166666667 4.28059895833333  C 12.8146701388889 4.22634548611111  12.8770616319444 4.13411458333333  12.9475911458333 4.00390625  C 13.0181206597222 3.87369791666667  13.0750868055556 3.78146701388889  13.1184895833333 3.72721354166667  C 13.2161458333333 3.662109375  13.2921006944444 3.63226996527778  13.3463541666667 3.6376953125  C 13.4006076388889 3.64312065972222  13.4792751736111 3.67296006944444  13.5823567708333 3.72721354166667  C 13.6854383680556 3.78146701388889  13.7641059027778 3.80859375  13.818359375 3.80859375  C 13.9702690972222 3.81944444444444  14.0543619791667 3.759765625  14.0706380208333 3.62955729166667  C 14.0869140625 3.49934895833333  14.0462239583333 3.39084201388889  13.9485677083333 3.30403645833333  C 14.0787760416667 3.31488715277778  14.0950520833333 3.22265625  13.9973958333333 3.02734375  C 13.9539930555556 2.95138888888889  13.9105902777778 2.90256076388889  13.8671875 2.880859375  C 13.7369791666667 2.83745659722222  13.5904947916667 2.86458333333333  13.427734375 2.96223958333333  C 13.3409288194444 3.00564236111111  13.3517795138889 3.04904513888889  13.4602864583333 3.09244791666667  C 13.4494357638889 3.08159722222222  13.3978949652778 3.13856336805556  13.3056640625 3.26334635416667  C 13.2134331597222 3.38812934027778  13.1239149305556 3.48307291666667  13.037109375 3.54817708333333  C 12.9503038194444 3.61328125  12.8634982638889 3.58615451388889  12.7766927083333 3.466796875  C 12.7658420138889 3.45594618055556  12.7360026041667 3.38270399305556  12.6871744791667 3.2470703125  C 12.6383463541667 3.11143663194444  12.5868055555556 3.03819444444444  12.5325520833333 3.02734375  C 12.4457465277778 3.02734375  12.3589409722222 3.10872395833333  12.2721354166667 3.271484375  C 12.3046875 3.18467881944444  12.2450086805556 3.10329861111111  12.0930989583333 3.02734375  C 11.9411892361111 2.95138888888889  11.8109809027778 2.90798611111111  11.7024739583333 2.89713541666667  C 11.9086371527778 2.76692708333333  11.865234375 2.62044270833333  11.572265625 2.45768229166667  C 11.4963107638889 2.41427951388889  11.3850911458333 2.38715277777778  11.2386067708333 2.37630208333333  C 11.0921223958333 2.36545138888889  10.986328125 2.38715277777778  10.9212239583333 2.44140625  C 10.8669704861111 2.51736111111111  10.8371310763889 2.57975260416667  10.8317057291667 2.62858072916667  C 10.8262803819444 2.67740885416667  10.8534071180556 2.72081163194444  10.9130859375 2.7587890625  C 10.9727647569444 2.79676649305556  11.0297309027778 2.82660590277778  11.083984375 2.84830729166667  C 11.1382378472222 2.87000868055556  11.2006293402778 2.89171006944444  11.2711588541667 2.91341145833333  C 11.3416883680556 2.93511284722222  11.3878038194444 2.95138888888889  11.4095052083333 2.96223958333333  C 11.5614149305556 3.07074652777778  11.6048177083333 3.14670138888889  11.5397135416667 3.19010416666667  C 11.5180121527778 3.20095486111111  11.4718967013889 3.21994357638889  11.4013671875 3.2470703125  C 11.3308376736111 3.27419704861111  11.2684461805556 3.29861111111111  11.2141927083333 3.3203125  C 11.1599392361111 3.34201388888889  11.1273871527778 3.36371527777778  11.1165364583333 3.38541666666667  C 11.083984375 3.42881944444444  11.083984375 3.50477430555556  11.1165364583333 3.61328125  C 11.1490885416667 3.72178819444444  11.1382378472222 3.79774305555556  11.083984375 3.84114583333333  C 11.0297309027778 3.78689236111111  10.9809027777778 3.69194878472222  10.9375 3.55631510416667  C 10.8940972222222 3.42068142361111  10.8561197916667 3.33116319444444  10.8235677083333 3.28776041666667  C 10.8995225694444 3.38541666666667  10.7638888888889 3.41796875  10.4166666666667 3.38541666666667  L 10.25390625 3.369140625  C 10.2105034722222 3.369140625  10.1236979166667 3.37999131944444  9.99348958333333 3.40169270833333  C 9.86328125 3.42339409722222  9.75206163194445 3.42881944444444  9.65983072916667 3.41796875  C 9.56759982638889 3.40711805555556  9.49435763888889 3.36371527777778  9.44010416666667 3.28776041666667  C 9.39670138888889 3.20095486111111  9.39670138888889 3.09244791666667  9.44010416666667 2.96223958333333  C 9.45095486111111 2.91883680555556  9.47265625 2.90798611111111  9.50520833333333 2.9296875  C 9.46180555555556 2.89713541666667  9.40212673611111 2.84559461805556  9.326171875 2.77506510416667  C 9.25021701388889 2.70453559027778  9.19596354166667 2.65842013888889  9.16341145833333 2.63671875  C 8.66427951388889 2.79947916666667  8.154296875 3.02191840277778  7.63346354166667 3.30403645833333  C 7.69856770833333 3.31488715277778  7.763671875 3.30946180555556  7.82877604166667 3.28776041666667  C 7.88302951388889 3.26605902777778  7.95355902777778 3.23079427083333  8.04036458333333 3.18196614583333  C 8.12717013888889 3.13313802083333  8.18142361111111 3.10329861111111  8.203125 3.09244791666667  C 8.57204861111111 2.94053819444444  8.79991319444445 2.90256076388889  8.88671875 2.978515625  L 8.96809895833333 2.89713541666667  C 9.12000868055556 3.07074652777778  9.228515625 3.20638020833333  9.29361979166667 3.30403645833333  C 9.21766493055556 3.26063368055556  9.05490451388889 3.25520833333333  8.80533854166667 3.28776041666667  C 8.58832465277778 3.35286458333333  8.46896701388889 3.41796875  8.447265625 3.48307291666667  C 8.52322048611111 3.61328125  8.55034722222222 3.7109375  8.52864583333333 3.77604166666667  C 8.48524305555556 3.74348958333333  8.4228515625 3.68923611111111  8.34147135416667 3.61328125  C 8.26009114583333 3.53732638888889  8.18142361111111 3.47764756944444  8.10546875 3.43424479166667  C 8.02951388888889 3.39084201388889  7.94813368055556 3.36371527777778  7.861328125 3.35286458333333  C 7.68771701388889 3.35286458333333  7.568359375 3.35828993055556  7.50325520833333 3.369140625  C 5.91905381944444 4.23719618055556  4.64409722222222 5.44162326388889  3.67838541666667 6.982421875  C 3.75434027777778 7.05837673611111  3.81944444444444 7.10177951388889  3.87369791666667 7.11263020833333  C 3.91710069444444 7.12348090277778  3.94422743055556 7.17230902777778  3.955078125 7.25911458333333  C 3.96592881944444 7.34592013888889  3.9794921875 7.40559895833333  3.99576822916667 7.43815104166667  C 4.01204427083333 7.470703125  4.07443576388889 7.45442708333333  4.18294270833333 7.38932291666667  C 4.28059895833333 7.47612847222222  4.296875 7.57921006944444  4.23177083333333 7.69856770833333  C 4.24262152777778 7.68771701388889  4.48133680555556 7.83420138888889  4.94791666666667 8.13802083333333  C 5.15407986111111 8.32248263888889  5.26801215277778 8.43641493055556  5.28971354166667 8.47981770833333  C 5.322265625 8.59917534722222  5.26801215277778 8.69683159722222  5.126953125 8.77278645833333  C 5.11610243055556 8.75108506944444  5.06727430555556 8.70225694444444  4.98046875 8.62630208333333  C 4.89366319444444 8.55034722222222  4.84483506944444 8.52864583333333  4.833984375 8.56119791666667  C 4.80143229166667 8.61545138888889  4.80414496527778 8.7158203125  4.84212239583333 8.8623046875  C 4.88009982638889 9.0087890625  4.93706597222222 9.07660590277778  5.01302083333333 9.06575520833333  C 4.93706597222222 9.06575520833333  4.88552517361111 9.15256076388889  4.8583984375 9.326171875  C 4.83127170138889 9.49978298611111  4.81770833333333 9.6923828125  4.81770833333333 9.90397135416667  C 4.81770833333333 10.1155598958333  4.81228298611111 10.2430555555556  4.80143229166667 10.2864583333333  L 4.833984375 10.302734375  C 4.80143229166667 10.4329427083333  4.83127170138889 10.6201171875  4.92350260416667 10.8642578125  C 5.01573350694444 11.1083984375  5.13237847222222 11.2141927083333  5.2734375 11.181640625  C 5.13237847222222 11.2141927083333  5.24088541666667 11.4474826388889  5.59895833333333 11.8815104166667  C 5.6640625 11.9683159722222  5.70746527777778 12.0171440972222  5.72916666666667 12.0279947916667  C 5.76171875 12.0496961805556  5.82682291666667 12.0903862847222  5.92447916666667 12.1500651041667  C 6.02213541666667 12.2097439236111  6.103515625 12.2639973958333  6.16861979166667 12.3128255208333  C 6.23372395833333 12.3616536458333  6.28797743055556 12.4186197916667  6.33138020833333 12.4837239583333  C 6.37478298611111 12.5379774305556  6.42903645833333 12.6600477430556  6.494140625 12.8499348958333  C 6.55924479166667 13.0398220486111  6.63519965277778 13.1673177083333  6.72200520833333 13.232421875  C 6.70030381944445 13.2975260416667  6.75184461805556 13.4060329861111  6.87662760416667 13.5579427083333  C 7.00141059027778 13.7098524305556  7.05837673611111 13.8346354166667  7.04752604166667 13.9322916666667  C 7.03667534722222 13.9322916666667  7.02311197916667 13.9377170138889  7.0068359375 13.9485677083333  C 6.99055989583333 13.9594184027778  6.97699652777778 13.96484375  6.96614583333333 13.96484375  C 6.99869791666667 14.0407986111111  7.08279079861111 14.1167534722222  7.21842447916667 14.1927083333333  C 7.35405815972222 14.2686631944444  7.43815104166667 14.3391927083333  7.470703125 14.404296875  C 7.48155381944444 14.4368489583333  7.49240451388889 14.4911024305556  7.50325520833333 14.5670572916667  C 7.51410590277778 14.6430121527778  7.53038194444445 14.7026909722222  7.55208333333333 14.74609375  C 7.57378472222222 14.7894965277778  7.6171875 14.8003472222222  7.68229166666667 14.7786458333333  C 7.70399305555556 14.5616319444444  7.57378472222222 14.2252604166667  7.29166666666667 13.76953125  C 7.12890625 13.4982638888889  7.03667534722222 13.3409288194444  7.01497395833333 13.2975260416667  C 6.982421875 13.2432725694444  6.95258246527778 13.1591796875  6.92545572916667 13.0452473958333  C 6.89832899305556 12.9313151041667  6.87391493055556 12.8526475694444  6.85221354166667 12.8092447916667  C 6.87391493055556 12.8092447916667  6.90646701388889 12.8173828125  6.94986979166667 12.8336588541667  C 6.99327256944444 12.8499348958333  7.03938802083333 12.8689236111111  7.08821614583333 12.890625  C 7.13704427083333 12.9123263888889  7.177734375 12.9340277777778  7.21028645833333 12.9557291666667  C 7.24283854166667 12.9774305555556  7.25368923611111 12.9937065972222  7.24283854166667 13.0045572916667  C 7.21028645833333 13.0805121527778  7.22113715277778 13.1754557291667  7.275390625 13.2893880208333  C 7.32964409722222 13.4033203125  7.39474826388889 13.5036892361111  7.470703125 13.5904947916667  C 7.54665798611111 13.6773003472222  7.63888888888889 13.7803819444444  7.74739583333333 13.8997395833333  C 7.85590277777778 14.0190972222222  7.92100694444445 14.0896267361111  7.94270833333333 14.111328125  C 8.0078125 14.1764322916667  8.08376736111111 14.2822265625  8.17057291666667 14.4287109375  C 8.25737847222222 14.5751953125  8.25737847222222 14.6484375  8.17057291666667 14.6484375  C 8.26822916666667 14.6484375  8.37673611111111 14.7054036458333  8.49609375 14.8193359375  C 8.61545138888889 14.9332682291667  8.70768229166667 15.0390625  8.77278645833333 15.13671875  C 8.82703993055556 15.2235243055556  8.87044270833333 15.3645833333333  8.90299479166667 15.5598958333333  C 8.935546875 15.7552083333333  8.96267361111111 15.8854166666667  8.984375 15.9505208333333  C 9.00607638888889 16.0264756944444  9.05219184027778 16.0997178819444  9.12272135416667 16.1702473958333  C 9.19325086805556 16.2407769097222  9.26106770833333 16.2923177083333  9.326171875 16.3248697916667  L 9.58658854166667 16.455078125  C 9.58658854166667 16.455078125  9.65711805555556 16.4930555555556  9.79817708333333 16.5690104166667  C 9.85243055555556 16.5907118055556  9.95279947916667 16.6476779513889  10.0992838541667 16.7399088541667  C 10.2457682291667 16.8321397569444  10.3624131944444 16.89453125  10.44921875 16.9270833333333  C 10.5577256944444 16.9704861111111  10.64453125 16.9921875  10.7096354166667 16.9921875  C 10.7747395833333 16.9921875  10.8534071180556 16.9786241319444  10.9456380208333 16.9514973958333  C 11.0378689236111 16.9243706597222  11.1111111111111 16.9053819444444  11.1653645833333 16.89453125  C 11.328125 16.8728298611111  11.4854600694444 16.9542100694444  11.6373697916667 17.138671875  C 11.7892795138889 17.3231336805556  11.9032118055556 17.4370659722222  11.9791666666667 17.48046875  C 12.3697916666667 17.6866319444444  12.6681857638889 17.7463107638889  12.8743489583333 17.6595052083333  C 12.8526475694444 17.6703559027778  12.8553602430556 17.7110460069444  12.8824869791667 17.7815755208333  C 12.9096137152778 17.8521050347222  12.9530164930556 17.9361979166667  13.0126953125 18.0338541666667  C 13.0723741319444 18.1315104166667  13.1212022569444 18.2101779513889  13.1591796875 18.2698567708333  C 13.1971571180556 18.3295355902778  13.2269965277778 18.3756510416667  13.2486979166667 18.408203125  C 13.3029513888889 18.4733072916667  13.4006076388889 18.5546875  13.5416666666667 18.65234375  C 13.6827256944444 18.75  13.7803819444444 18.8313802083333  13.8346354166667 18.896484375  C 13.8997395833333 18.8530815972222  13.9377170138889 18.8042534722222  13.9485677083333 18.75  C 13.916015625 18.8368055555556  13.9539930555556 18.9453125  14.0625 19.0755208333333  C 14.1710069444444 19.2057291666667  14.2686631944444 19.2599826388889  14.35546875 19.23828125  C 14.5073784722222 19.2057291666667  14.5833333333333 19.0321180555556  14.5833333333333 18.7174479166667  C 14.2469618055556 18.8802083333333  13.9811197916667 18.7825520833333  13.7858072916667 18.4244791666667  C 13.7858072916667 18.4136284722222  13.7722439236111 18.3837890625  13.7451171875 18.3349609375  C 13.7179904513889 18.2861328125  13.6962890625 18.2400173611111  13.6800130208333 18.1966145833333  C 13.6637369791667 18.1532118055556  13.6501736111111 18.1070963541667  13.6393229166667 18.0582682291667  C 13.6284722222222 18.0094401041667  13.6284722222222 17.96875  13.6393229166667 17.9361979166667  C 13.6501736111111 17.9036458333333  13.6773003472222 17.8873697916667  13.720703125 17.8873697916667  C 13.818359375 17.8873697916667  13.8726128472222 17.8683810763889  13.8834635416667 17.8304036458333  C 13.8943142361111 17.7924262152778  13.8834635416667 17.724609375  13.8509114583333 17.626953125  C 13.818359375 17.529296875  13.7966579861111 17.4587673611111  13.7858072916667 17.4153645833333  C 13.7749565972222 17.3285590277778  13.7152777777778 17.2200520833333  13.6067708333333 17.08984375  C 13.4982638888889 16.9596354166667  13.4331597222222 16.8782552083333  13.4114583333333 16.845703125  C 13.3572048611111 16.943359375  13.2703993055556 16.9867621527778  13.1510416666667 16.9759114583333  C 13.0316840277778 16.9650607638889  12.9448784722222 16.9162326388889  12.890625 16.8294270833333  C 12.890625 16.8402777777778  12.8824869791667 16.8701171875  12.8662109375 16.9189453125  C 12.8499348958333 16.9677734375  12.841796875 17.0030381944444  12.841796875 17.0247395833333  C 12.7007378472222 17.0247395833333  12.6193576388889 17.0193142361111  12.59765625 17.0084635416667  C 12.6085069444444 16.9759114583333  12.6220703125 16.8809678819444  12.6383463541667 16.7236328125  C 12.6546223958333 16.5662977430556  12.6736111111111 16.4442274305556  12.6953125 16.357421875  C 12.7061631944444 16.3140190972222  12.7360026041667 16.2489149305556  12.7848307291667 16.162109375  C 12.8336588541667 16.0753038194444  12.8743489583333 15.9966362847222  12.9069010416667 15.9261067708333  C 12.939453125 15.8555772569444  12.9611545138889 15.7877604166667  12.9720052083333 15.72265625  C 12.9828559027778 15.6575520833333  12.9584418402778 15.6060112847222  12.8987630208333 15.5680338541667  C 12.8390842013889 15.5300564236111  12.744140625 15.5164930555556  12.6139322916667 15.52734375  C 12.4077690972222 15.5381944444444  12.2667100694444 15.6467013888889  12.1907552083333 15.8528645833333  C 12.1799045138889 15.8854166666667  12.1636284722222 15.9423828125  12.1419270833333 16.0237630208333  C 12.1202256944444 16.1051432291667  12.0930989583333 16.1675347222222  12.060546875 16.2109375  C 12.0279947916667 16.2543402777778  11.9791666666667 16.2923177083333  11.9140625 16.3248697916667  C 11.8381076388889 16.357421875  11.7078993055556 16.3682725694444  11.5234375 16.357421875  C 11.3389756944444 16.3465711805556  11.2087673611111 16.3194444444444  11.1328125 16.2760416666667  C 10.9917534722222 16.1892361111111  10.8696831597222 16.0319010416667  10.7666015625 15.8040364583333  C 10.6635199652778 15.576171875  10.6119791666667 15.3754340277778  10.6119791666667 15.2018229166667  C 10.6119791666667 15.0933159722222  10.6255425347222 14.9495442708333  10.6526692708333 14.7705078125  C 10.6797960069444 14.5914713541667  10.6960720486111 14.4558376736111  10.7014973958333 14.3636067708333  C 10.7069227430556 14.2713758680556  10.6770833333333 14.1384548611111  10.6119791666667 13.96484375  C 10.64453125 13.9431423611111  10.693359375 13.8916015625  10.7584635416667 13.8102213541667  C 10.8235677083333 13.7288411458333  10.8778211805556 13.671875  10.9212239583333 13.6393229166667  C 10.9429253472222 13.6284722222222  10.9673394097222 13.6203342013889  10.9944661458333 13.6149088541667  C 11.0215928819444 13.6094835069444  11.0460069444444 13.6094835069444  11.0677083333333 13.6149088541667  C 11.0894097222222 13.6203342013889  11.1111111111111 13.6121961805556  11.1328125 13.5904947916667  C 11.1545138888889 13.5687934027778  11.1707899305556 13.5362413194444  11.181640625 13.4928385416667  C 11.1707899305556 13.4819878472222  11.1490885416667 13.4657118055556  11.1165364583333 13.4440104166667  C 11.083984375 13.4114583333333  11.0622829861111 13.3951822916667  11.0514322916667 13.3951822916667  C 11.1273871527778 13.427734375  11.2820095486111 13.4195963541667  11.5152994791667 13.3707682291667  C 11.7485894097222 13.3219401041667  11.8977864583333 13.330078125  11.962890625 13.3951822916667  C 12.1256510416667 13.5145399305556  12.2450086805556 13.5036892361111  12.3209635416667 13.3626302083333  C 12.3209635416667 13.3517795138889  12.3074001736111 13.3002387152778  12.2802734375 13.2080078125  C 12.2531467013889 13.1157769097222  12.2504340277778 13.0425347222222  12.2721354166667 12.98828125  C 12.3263888888889 13.28125  12.4837239583333 13.330078125  12.744140625 13.134765625  C 12.7766927083333 13.1673177083333  12.8607855902778 13.1944444444444  12.9964192708333 13.2161458333333  C 13.1320529513889 13.2378472222222  13.2269965277778 13.2649739583333  13.28125 13.2975260416667  C 13.3138020833333 13.3192274305556  13.3517795138889 13.3490668402778  13.3951822916667 13.3870442708333  C 13.4385850694444 13.4250217013889  13.4684244791667 13.4494357638889  13.4847005208333 13.4602864583333  C 13.5009765625 13.4711371527778  13.5281032986111 13.4684244791667  13.5660807291667 13.4521484375  C 13.6040581597222 13.4358723958333  13.6501736111111 13.4006076388889  13.7044270833333 13.3463541666667  C 13.8129340277778 13.4982638888889  13.8780381944444 13.6284722222222  13.8997395833333 13.7369791666667  C 14.0190972222222 14.1710069444444  14.1221788194444 14.4097222222222  14.208984375 14.453125  C 14.2849392361111 14.4856770833333  14.3446180555556 14.4965277777778  14.3880208333333 14.4856770833333  C 14.4314236111111 14.4748263888889  14.4558376736111 14.4232855902778  14.4612630208333 14.3310546875  C 14.4666883680556 14.2388237847222  14.4666883680556 14.1628689236111  14.4612630208333 14.1031901041667  C 14.4558376736111 14.0435112847222  14.4476996527778 13.9756944444444  14.4368489583333 13.8997395833333  L 14.4205729166667 13.76953125  L 14.4205729166667 13.4765625  L 14.404296875 13.3463541666667  C 14.2415364583333 13.3138020833333  14.1411675347222 13.2486979166667  14.1031901041667 13.1510416666667  C 14.0652126736111 13.0533854166667  14.0733506944444 12.9530164930556  14.1276041666667 12.8499348958333  C 14.1818576388889 12.7468532986111  14.2632378472222 12.646484375  14.3717447916667 12.548828125  C 14.3825954861111 12.5379774305556  14.4259982638889 12.5189887152778  14.501953125 12.4918619791667  C 14.5779079861111 12.4647352430556  14.6620008680556 12.4294704861111  14.7542317708333 12.3860677083333  C 14.8464626736111 12.3426649305556  14.9142795138889 12.2992621527778  14.9576822916667 12.255859375  C 15.185546875 12.0496961805556  15.2669270833333 11.8598090277778  15.2018229166667 11.6861979166667  C 15.2777777777778 11.6861979166667  15.3374565972222 11.6373697916667  15.380859375 11.5397135416667  C 15.3700086805556 11.5397135416667  15.3428819444444 11.5234375  15.2994791666667 11.4908854166667  C 15.2560763888889 11.4583333333333  15.2153862847222 11.4312065972222  15.1774088541667 11.4095052083333  C 15.1394314236111 11.3878038194444  15.1150173611111 11.376953125  15.1041666666667 11.376953125  C 15.2018229166667 11.3226996527778  15.2126736111111 11.2358940972222  15.13671875 11.1165364583333  C 15.1909722222222 11.083984375  15.2316623263889 11.0243055555556  15.2587890625 10.9375  C 15.2859157986111 10.8506944444444  15.3266059027778 10.7964409722222  15.380859375 10.7747395833333  C 15.478515625 10.9049479166667  15.5924479166667 10.9157986111111  15.72265625 10.8072916666667  C 15.8094618055556 10.7204861111111  15.8148871527778 10.6336805555556  15.7389322916667 10.546875  C 15.7931857638889 10.4709201388889  15.9044053819444 10.4139539930556  16.0725911458333 10.3759765625  C 16.2407769097222 10.3379991319444  16.3411458333333 10.2864583333333  16.3736979166667 10.2213541666667  C 16.4496527777778 10.2430555555556  16.4930555555556 10.2322048611111  16.50390625 10.1888020833333  C 16.5147569444444 10.1453993055556  16.5201822916667 10.0802951388889  16.5201822916667 9.99348958333333  C 16.5201822916667 9.90668402777778  16.5364583333333 9.84157986111111  16.5690104166667 9.79817708333333  C 16.6124131944444 9.74392361111111  16.6937934027778 9.69509548611111  16.8131510416667 9.65169270833333  C 16.9325086805556 9.60828993055556  17.0030381944444 9.58116319444444  17.0247395833333 9.5703125  L 17.3014322916667 9.39127604166667  C 17.333984375 9.34787326388889  17.333984375 9.326171875  17.3014322916667 9.326171875  C 17.4967447916667 9.34787326388889  17.6649305555556 9.28819444444444  17.8059895833333 9.14713541666667  C 17.9144965277778 9.02777777777778  17.8819444444444 8.91927083333333  17.7083333333333 8.82161458333333  C 17.7408854166667 8.75651041666667  17.724609375 8.70496961805556  17.6595052083333 8.6669921875  C 17.5944010416667 8.62901475694444  17.5130208333333 8.59917534722222  17.4153645833333 8.57747395833333  C 17.4479166666667 8.56662326388889  17.5103081597222 8.56391059027778  17.6025390625 8.5693359375  C 17.6947699652778 8.57476128472222  17.7517361111111 8.56662326388889  17.7734375 8.544921875  C 17.9361979166667 8.43641493055556  17.8982204861111 8.349609375  17.6595052083333 8.28450520833333  Z M 14.2740885416667 22.4934895833333  C 14.2740885416667 22.55859375  14.2849392361111 22.6453993055556  14.306640625 22.75390625  C 16.5418836805556 22.36328125  18.4461805555556 21.337890625  20.01953125 19.677734375  C 19.9869791666667 19.6451822916667  19.9191623263889 19.6207682291667  19.8160807291667 19.6044921875  C 19.7129991319444 19.5882161458333  19.6451822916667 19.5692274305556  19.6126302083333 19.5475260416667  C 19.4173177083333 19.4715711805556  19.287109375 19.4281684027778  19.2220052083333 19.4173177083333  C 19.2328559027778 19.3413628472222  19.2192925347222 19.2708333333333  19.1813151041667 19.2057291666667  C 19.1433376736111 19.140625  19.0999348958333 19.091796875  19.0511067708333 19.0592447916667  C 19.0022786458333 19.0266927083333  18.9344618055556 18.9832899305556  18.84765625 18.9290364583333  C 18.7608506944444 18.8747829861111  18.701171875 18.8368055555556  18.6686197916667 18.8151041666667  C 18.6469184027778 18.7934027777778  18.6089409722222 18.7608506944444  18.5546875 18.7174479166667  C 18.5004340277778 18.6740451388889  18.4624565972222 18.6442057291667  18.4407552083333 18.6279296875  C 18.4190538194444 18.6116536458333  18.3783637152778 18.5872395833333  18.3186848958333 18.5546875  C 18.2590060763889 18.5221354166667  18.212890625 18.5112847222222  18.1803385416667 18.5221354166667  C 18.1477864583333 18.5329861111111  18.0935329861111 18.5384114583333  18.017578125 18.5384114583333  L 17.96875 18.5546875  C 17.9361979166667 18.5655381944444  17.9063585069444 18.5791015625  17.8792317708333 18.5953776041667  C 17.8521050347222 18.6116536458333  17.822265625 18.6279296875  17.7897135416667 18.6442057291667  C 17.7571614583333 18.6604817708333  17.7354600694444 18.6767578125  17.724609375 18.6930338541667  C 17.7137586805556 18.7093098958333  17.7137586805556 18.7228732638889  17.724609375 18.7337239583333  C 17.4967447916667 18.5492621527778  17.3014322916667 18.4299045138889  17.138671875 18.3756510416667  C 17.0844184027778 18.3648003472222  17.0247395833333 18.3349609375  16.9596354166667 18.2861328125  C 16.89453125 18.2373046875  16.8375651041667 18.1993272569444  16.7887369791667 18.1722005208333  C 16.7399088541667 18.1450737847222  16.6856553819444 18.1369357638889  16.6259765625 18.1477864583333  C 16.5662977430556 18.1586371527778  16.50390625 18.1966145833333  16.4388020833333 18.26171875  C 16.3845486111111 18.3159722222222  16.3519965277778 18.3973524305556  16.3411458333333 18.505859375  C 16.3302951388889 18.6143663194444  16.3194444444444 18.6848958333333  16.30859375 18.7174479166667  C 16.2326388888889 18.6631944444444  16.2326388888889 18.5682508680556  16.30859375 18.4326171875  C 16.3845486111111 18.2969835069444  16.3953993055556 18.1966145833333  16.3411458333333 18.1315104166667  C 16.30859375 18.06640625  16.2516276041667 18.0419921875  16.1702473958333 18.0582682291667  C 16.0888671875 18.0745442708333  16.0237630208333 18.0989583333333  15.9749348958333 18.1315104166667  C 15.9261067708333 18.1640625  15.8637152777778 18.2101779513889  15.7877604166667 18.2698567708333  C 15.7118055555556 18.3295355902778  15.6629774305556 18.3648003472222  15.6412760416667 18.3756510416667  C 15.6195746527778 18.3865017361111  15.5734592013889 18.4163411458333  15.5029296875 18.4651692708333  C 15.4324001736111 18.5139973958333  15.3862847222222 18.5546875  15.3645833333333 18.5872395833333  C 15.33203125 18.6306423611111  15.2994791666667 18.6957465277778  15.2669270833333 18.7825520833333  C 15.234375 18.8693576388889  15.2072482638889 18.9290364583333  15.185546875 18.9615885416667  C 15.1638454861111 18.9181857638889  15.1014539930556 18.8829210069444  14.9983723958333 18.8557942708333  C 14.8952907986111 18.8286675347222  14.84375 18.798828125  14.84375 18.7662760416667  C 14.8654513888889 18.8747829861111  14.8871527777778 19.0646701388889  14.9088541666667 19.3359375  C 14.9305555555556 19.6072048611111  14.9576822916667 19.8133680555556  14.990234375 19.9544270833333  C 15.0661892361111 20.2907986111111  15.0010850694444 20.5512152777778  14.794921875 20.7356770833333  C 14.501953125 21.0069444444444  14.3446180555556 21.2239583333333  14.3229166666667 21.38671875  C 14.2795138888889 21.6254340277778  14.3446180555556 21.7664930555556  14.5182291666667 21.8098958333333  C 14.5182291666667 21.8858506944444  14.4748263888889 21.9970703125  14.3880208333333 22.1435546875  C 14.3012152777778 22.2900390625  14.2632378472222 22.4066840277778  14.2740885416667 22.4934895833333  Z " fill-rule="nonzero" fill="#f2f2f2" stroke="none" transform="matrix(1 0 0 1 335 8 )" />
  </g>
</svg>