<?xml version="1.0" encoding="utf-8"?>
<svg version="1.1" xmlns:xlink="http://www.w3.org/1999/xlink" width="20px" height="20px" xmlns="http://www.w3.org/2000/svg">
  <g transform="matrix(1 0 0 1 -172 -413 )">
    <path d="M 182 413  C 187.6 413  192 417.4  192 423  C 192 428.6  187.6 433  182 433  C 176.4 433  172 428.6  172 423  C 172 417.4  176.4 413  182 413  Z " fill-rule="nonzero" fill="#70b603" stroke="none" />
    <path d="M 182 413.5  C 187.32 413.5  191.5 417.68  191.5 423  C 191.5 428.32  187.32 432.5  182 432.5  C 176.68 432.5  172.5 428.32  172.5 423  C 172.5 417.68  176.68 413.5  182 413.5  Z " stroke-width="1" stroke="#70b603" fill="none" />
  </g>
</svg>