<?xml version="1.0" encoding="utf-8"?>
<svg version="1.1" xmlns:xlink="http://www.w3.org/1999/xlink" width="230px" height="190px" xmlns="http://www.w3.org/2000/svg">
  <g transform="matrix(1 0 0 1 -75 -240 )">
    <path d="M 69.9583333333333 38.59375  C 74.4305555555556 43.2118055555555  76.6666666666667 48.8194444444444  76.6666666666667 55.4166666666667  C 76.6666666666667 62.0138888888889  74.4305555555556 67.6215277777778  69.9583333333333 72.2395833333333  C 65.4861111111111 76.8576388888889  60.0555555555556 79.1666666666667  53.6666666666667 79.1666666666667  C 47.2777777777778 79.1666666666667  41.8472222222222 76.8576388888889  37.375 72.2395833333333  C 32.9027777777778 67.6215277777778  30.6666666666667 62.0138888888889  30.6666666666667 55.4166666666667  C 30.6666666666667 48.8194444444444  32.9027777777778 43.2118055555555  37.375 38.59375  C 41.8472222222222 33.9756944444444  47.2777777777778 31.6666666666667  53.6666666666667 31.6666666666667  C 60.0555555555556 31.6666666666667  65.4861111111111 33.9756944444444  69.9583333333333 38.59375  Z M 149.5 51.4583333333333  L 199 102.916666666667  L 199 158  L 31 158  L 31 134.583333333333  L 69 95  L 88.1666666666667 114.791666666667  L 149.5 51.4583333333333  Z M 213.528645833333 17.0084635416667  C 212.769965277778 16.2250434027778  211.871527777778 15.8333333333333  210.833333333333 16  L 19.1666666666667 16  C 18.1284722222222 15.8333333333333  17.2300347222222 16.2250434027778  16.4713541666667 17.0084635416667  C 15.7126736111111 17.7918836805555  15.3333333333333 18.7196180555555  16 19.7916666666667  L 16 170.208333333333  C 15.3333333333333 171.280381944444  15.7126736111111 172.208116319444  16.4713541666667 172.991536458333  C 17.2300347222222 173.774956597222  18.1284722222222 174.166666666667  19.1666666666667 174  L 210.833333333333 174  C 211.871527777778 174.166666666667  212.769965277778 173.774956597222  213.528645833333 172.991536458333  C 214.287326388889 172.208116319444  214.666666666667 171.280381944444  214 170.208333333333  L 214 19.7916666666667  C 214.666666666667 18.7196180555555  214.287326388889 17.7918836805555  213.528645833333 17.0084635416667  Z M 224.369791666667 5.81380208333334  C 228.123263888889 9.68967013888888  230 14.3489583333333  230 19.7916666666667  L 230 170.208333333333  C 230 175.651041666667  228.123263888889 180.310329861111  224.369791666667 184.186197916667  C 220.616319444444 188.062065972222  216.104166666667 190  210.833333333333 190  L 19.1666666666667 190  C 13.8958333333333 190  9.38368055555556 188.062065972222  5.63020833333333 184.186197916667  C 1.87673611111111 180.310329861111  0 175.651041666667  0 170.208333333333  L 0 19.7916666666667  C 0 14.3489583333333  1.87673611111111 9.68967013888888  5.63020833333333 5.81380208333334  C 9.38368055555556 1.93793402777776  13.8958333333333 0  19.1666666666667 0  L 210.833333333333 0  C 216.104166666667 0  220.616319444444 1.93793402777776  224.369791666667 5.81380208333334  Z " fill-rule="nonzero" fill="#d7d7d7" stroke="none" transform="matrix(1 0 0 1 75 240 )" />
  </g>
</svg>