<?xml version="1.0" encoding="utf-8"?>
<svg version="1.1" xmlns:xlink="http://www.w3.org/1999/xlink" width="17px" height="17px" xmlns="http://www.w3.org/2000/svg">
  <g transform="matrix(1 0 0 1 -24 -16 )">
    <path d="M 16.9637784090909 13.1725852272727  C 16.9879261363636 13.2289299242424  17 13.313446969697  17 13.4261363636364  C 17 13.6434659090909  16.9597537878788 13.9272017045455  16.8792613636364 14.27734375  C 16.7987689393939 14.6274857954545  16.7142518939394 14.9031723484848  16.6257102272727 15.1044034090909  C 16.4566761363636 15.506865530303  15.9656723484849 15.9334753787879  15.1526988636364 16.3842329545455  C 14.3960700757576 16.7947443181818  13.647490530303 17  12.9069602272727 17  C 12.6896306818182 17  12.4763257575758 16.9859138257576  12.2670454545455 16.9577414772727  C 12.0577651515152 16.9295691287879  11.8263494318182 16.8792613636364  11.5727982954545 16.8068181818182  C 11.3192471590909 16.734375  11.1300899621212 16.6760179924242  11.0053267045455 16.6317471590909  C 10.8805634469697 16.5874763257576  10.657196969697 16.5049715909091  10.3352272727273 16.3842329545455  C 10.0132575757576 16.2634943181818  9.81605113636364 16.1910511363636  9.74360795454545 16.1669034090909  C 8.9547821969697 15.8851799242424  8.25047348484848 15.5511363636364  7.63068181818182 15.1647727272727  C 6.60842803030303 14.5288825757576  5.54592803030303 13.6595643939394  4.44318181818182 12.5568181818182  C 3.34043560606061 11.454071969697  2.47111742424242 10.391571969697  1.83522727272727 9.36931818181818  C 1.44886363636364 8.74952651515152  1.11482007575758 8.0452178030303  0.833096590909091 7.25639204545455  C 0.808948863636364 7.18394886363636  0.736505681818182 6.98674242424242  0.615767045454546 6.66477272727273  C 0.495028409090909 6.34280303030303  0.412523674242424 6.1194365530303  0.368252840909091 5.99467329545455  C 0.323982007575758 5.86991003787879  0.265625 5.68075284090909  0.193181818181818 5.42720170454545  C 0.120738636363636 5.17365056818182  0.0704308712121212 4.94223484848485  0.0422585227272727 4.73295454545455  C 0.0140861742424242 4.52367424242424  0 4.31036931818182  0 4.09303977272727  C 0 3.35250946969697  0.205255681818182 2.60392992424242  0.615767045454546 1.84730113636364  C 1.06652462121212 1.03432765151515  1.49313446969697 0.543323863636364  1.89559659090909 0.374289772727272  C 2.09682765151515 0.285748106060605  2.37251420454545 0.201231060606059  2.72265625 0.120738636363636  C 3.07279829545455 0.0402462121212114  3.35653409090909 0  3.57386363636364 0  C 3.68655303030303 0  3.77107007575758 0.012073863636364  3.82741477272727 0.0362215909090901  C 3.97230113636364 0.084517045454546  4.18560606060606 0.390388257575757  4.46732954545455 0.953835227272728  C 4.55587121212121 1.10677083333333  4.67660984848485 1.32410037878788  4.82954545454546 1.60582386363636  C 4.98248106060606 1.88754734848485  5.1233428030303 2.14311079545455  5.25213068181818 2.37251420454545  C 5.38091856060606 2.60191761363636  5.50568181818182 2.81723484848485  5.62642045454546 3.01846590909091  C 5.65056818181818 3.05066287878788  5.7209990530303 3.15127840909091  5.83771306818182 3.3203125  C 5.95442708333333 3.48934659090909  6.04095643939394 3.63222064393939  6.09730113636364 3.74893465909091  C 6.15364583333333 3.86564867424242  6.18181818181818 3.98035037878788  6.18181818181818 4.09303977272727  C 6.18181818181818 4.25402462121212  6.06711647727273 4.45525568181818  5.83771306818182 4.69673295454545  C 5.60830965909091 4.93821022727273  5.35878314393939 5.15956439393939  5.08913352272727 5.36079545454545  C 4.81948390151515 5.56202651515151  4.56995738636364 5.77533143939394  4.34055397727273 6.00071022727273  C 4.11115056818182 6.22608901515151  3.99644886363636 6.41122159090909  3.99644886363636 6.55610795454545  C 3.99644886363636 6.62855113636364  4.01657196969697 6.71910511363636  4.05681818181818 6.82776988636364  C 4.09706439393939 6.93643465909091  4.13127367424242 7.01893939393939  4.15944602272727 7.07528409090909  C 4.18761837121212 7.13162878787879  4.24396306818182 7.2282196969697  4.32848011363636 7.36505681818182  C 4.41299715909091 7.50189393939394  4.4592803030303 7.57836174242424  4.46732954545455 7.59446022727273  C 5.07907196969697 8.69720643939394  5.77935606060606 9.64299242424242  6.56818181818182 10.4318181818182  C 7.35700757575758 11.2206439393939  8.30279356060606 11.920928030303  9.40553977272727 12.5326704545455  C 9.42163825757576 12.5407196969697  9.49810606060606 12.5870028409091  9.63494318181818 12.6715198863636  C 9.7717803030303 12.7560369318182  9.86837121212121 12.8123816287879  9.92471590909091 12.8405539772727  C 9.98106060606061 12.8687263257576  10.0635653409091 12.9029356060606  10.1722301136364 12.9431818181818  C 10.2808948863636 12.983428030303  10.3714488636364 13.0035511363636  10.4438920454545 13.0035511363636  C 10.5887784090909 13.0035511363636  10.7739109848485 12.8888494318182  10.9992897727273 12.6594460227273  C 11.2246685606061 12.4300426136364  11.4379734848485 12.1805160984848  11.6392045454545 11.9108664772727  C 11.8404356060606 11.6412168560606  12.0617897727273 11.3916903409091  12.3032670454545 11.1622869318182  C 12.5447443181818 10.9328835227273  12.7459753787879 10.8181818181818  12.9069602272727 10.8181818181818  C 13.0196496212121 10.8181818181818  13.1343513257576 10.8463541666667  13.2510653409091 10.9026988636364  C 13.3677793560606 10.9590435606061  13.5106534090909 11.0455729166667  13.6796875 11.1622869318182  C 13.8487215909091 11.2790009469697  13.9493371212121 11.3494318181818  13.9815340909091 11.3735795454545  C 14.1827651515152 11.4943181818182  14.3980823863636 11.6190814393939  14.6274857954545 11.7478693181818  C 14.8568892045455 11.8766571969697  15.1124526515152 12.0175189393939  15.3941761363636 12.1704545454545  C 15.6758996212121 12.3233901515152  15.8932291666667 12.4441287878788  16.0461647727273 12.5326704545455  C 16.6096117424242 12.8143939393939  16.9154829545455 13.0276988636364  16.9637784090909 13.1725852272727  Z " fill-rule="nonzero" fill="#000000" stroke="none" transform="matrix(1 0 0 1 24 16 )" />
  </g>
</svg>