<?xml version="1.0" encoding="utf-8"?>
<svg version="1.1" xmlns:xlink="http://www.w3.org/1999/xlink" width="50px" height="50px" xmlns="http://www.w3.org/2000/svg">
  <g transform="matrix(1 0 0 1 -14 -71 )">
    <path d="M 12.451171875 3.35286458333333  C 16.2814670138889 1.11762152777777  20.4644097222222 0  25 0  C 29.5355902777778 0  33.7185329861111 1.11762152777777  37.548828125 3.35286458333333  C 41.3791232638889 5.58810763888888  44.4118923611111 8.62087673611111  46.6471354166667 12.451171875  C 48.8823784722222 16.2814670138889  50 20.4644097222222  50 25  C 50 29.5355902777778  48.8823784722222 33.7185329861111  46.6471354166667 37.548828125  C 44.4118923611111 41.3791232638889  41.3791232638889 44.4118923611111  37.548828125 46.6471354166667  C 33.7185329861111 48.8823784722222  29.5355902777778 50  25 50  C 20.4644097222222 50  16.2814670138889 48.8823784722222  12.451171875 46.6471354166667  C 8.62087673611111 44.4118923611111  5.58810763888889 41.3791232638889  3.35286458333333 37.548828125  C 1.11762152777778 33.7185329861111  0 29.5355902777778  0 25  C 0 20.4644097222222  1.11762152777778 16.2814670138889  3.35286458333333 12.451171875  C 5.58810763888889 8.62087673611111  8.62087673611111 5.58810763888888  12.451171875 3.35286458333333  Z M 35.3190104166667 16.5690104166667  C 34.9500868055556 16.4605034722222  34.4835069444445 16.5907118055556  33.9192708333333 16.9596354166667  C 33.8758680555556 16.9813368055556  33.7727864583333 17.0844184027778  33.6100260416667 17.2688802083333  C 33.447265625 17.4533420138889  33.30078125 17.5564236111111  33.1705729166667 17.578125  C 33.2139756944445 17.578125  33.2628038194445 17.5238715277778  33.3170572916667 17.4153645833333  C 33.3713107638889 17.3068576388889  33.4255642361111 17.1875  33.4798177083333 17.0572916666667  C 33.5340711805556 16.9270833333333  33.5720486111111 16.8511284722222  33.59375 16.8294270833333  C 33.7239583333333 16.6775173611111  33.9626736111111 16.5147569444444  34.3098958333333 16.3411458333333  C 34.6137152777778 16.2109375  35.1779513888889 16.0807291666667  36.0026041666667 15.9505208333333  C 36.7404513888889 15.7769097222222  37.2938368055556 15.8962673611111  37.6627604166667 16.30859375  C 37.6193576388889 16.2651909722222  37.7224392361111 16.1241319444444  37.9720052083333 15.8854166666667  C 38.2215711805556 15.6467013888889  38.37890625 15.5164930555556  38.4440104166667 15.4947916666667  C 38.5091145833333 15.4513888888889  38.671875 15.4025607638889  38.9322916666667 15.3483072916667  C 39.1927083333333 15.2940538194444  39.35546875 15.2126736111111  39.4205729166667 15.1041666666667  L 39.4856770833333 14.3880208333333  C 39.2252604166667 14.4097222222222  39.0353732638889 14.3337673611111  38.916015625 14.16015625  C 38.7966579861111 13.9865451388889  38.7261284722222 13.7586805555556  38.7044270833333 13.4765625  C 38.7044270833333 13.5199652777778  38.6393229166667 13.6067708333333  38.5091145833333 13.7369791666667  C 38.5091145833333 13.5850694444444  38.4602864583333 13.4982638888889  38.3626302083333 13.4765625  C 38.2649739583333 13.4548611111111  38.1401909722222 13.4657118055556  37.98828125 13.5091145833333  C 37.8363715277778 13.5525173611111  37.7387152777778 13.5633680555556  37.6953125 13.5416666666667  C 37.4782986111111 13.4765625  37.3155381944445 13.3951822916667  37.20703125 13.2975260416667  C 37.0985243055556 13.1998697916667  37.01171875 13.0208333333333  36.9466145833333 12.7604166666667  C 36.8815104166667 12.5  36.8381076388889 12.3372395833333  36.81640625 12.2721354166667  C 36.7730034722222 12.1636284722222  36.669921875 12.0442708333333  36.5071614583333 11.9140625  C 36.3444010416667 11.7838541666667  36.2413194444445 11.6753472222222  36.1979166666667 11.5885416666667  C 36.1762152777778 11.5451388888889  36.1490885416667 11.4854600694444  36.1165364583333 11.4095052083333  C 36.083984375 11.3335503472222  36.0514322916667 11.2630208333333  36.0188802083333 11.1979166666667  C 35.986328125 11.1328125  35.9429253472222 11.0731336805556  35.888671875 11.0188802083333  C 35.8344184027778 10.9646267361111  35.7747395833333 10.9375  35.7096354166667 10.9375  C 35.64453125 10.9375  35.5685763888889 10.9917534722222  35.4817708333333 11.1002604166667  C 35.3949652777778 11.2087673611111  35.3135850694445 11.3172743055556  35.2376302083333 11.42578125  C 35.1616753472222 11.5342881944444  35.1128472222222 11.5885416666667  35.0911458333333 11.5885416666667  C 35.0260416666667 11.5451388888889  34.9609375 11.5288628472222  34.8958333333333 11.5397135416667  C 34.8307291666667 11.5505642361111  34.7819010416667 11.5614149305556  34.7493489583333 11.572265625  C 34.716796875 11.5831163194444  34.66796875 11.6156684027778  34.6028645833333 11.669921875  C 34.5377604166667 11.7241753472222  34.4835069444445 11.7621527777778  34.4401041666667 11.7838541666667  C 34.375 11.8272569444444  34.2827690972222 11.8598090277778  34.1634114583333 11.8815104166667  C 34.0440538194445 11.9032118055556  33.9518229166667 11.9249131944444  33.88671875 11.9466145833333  C 34.2122395833333 11.8381076388889  34.2013888888889 11.71875  33.8541666666667 11.5885416666667  C 33.6371527777778 11.5017361111111  33.4635416666667 11.4691840277778  33.3333333333333 11.4908854166667  C 33.5286458333333 11.4040798611111  33.6100260416667 11.2738715277778  33.5774739583333 11.1002604166667  C 33.544921875 10.9266493055556  33.4526909722222 10.7747395833333  33.30078125 10.64453125  L 33.4635416666667 10.64453125  C 33.4418402777778 10.5577256944444  33.349609375 10.4654947916667  33.1868489583333 10.3678385416667  C 33.0240885416667 10.2701822916667  32.8342013888889 10.1779513888889  32.6171875 10.0911458333333  C 32.4001736111111 10.0043402777778  32.2591145833333 9.93923611111111  32.1940104166667 9.89583333333333  C 32.0203993055556 9.78732638888888  31.6514756944444 9.68424479166667  31.0872395833333 9.58658854166667  C 30.5230034722222 9.48893229166667  30.1649305555556 9.48350694444444  30.0130208333333 9.5703125  C 29.9045138888889 9.70052083333333  29.8556857638889 9.814453125  29.8665364583333 9.912109375  C 29.8773871527778 10.009765625  29.9207899305556 10.1616753472222  29.9967447916667 10.3678385416667  C 30.0726996527778 10.5740017361111  30.1106770833333 10.7096354166667  30.1106770833333 10.7747395833333  C 30.1323784722222 10.9049479166667  30.0726996527778 11.0460069444444  29.931640625 11.1979166666667  C 29.7905815972222 11.3498263888889  29.7200520833333 11.4800347222222  29.7200520833333 11.5885416666667  C 29.7200520833333 11.7404513888889  29.8719618055556 11.9086371527778  30.17578125 12.0930989583333  C 30.4796006944444 12.2775607638889  30.5881076388889 12.5108506944444  30.5013020833333 12.79296875  C 30.4361979166667 12.9665798611111  30.2625868055556 13.1401909722222  29.98046875 13.3138020833333  C 29.6983506944444 13.4874131944444  29.5247395833333 13.6176215277778  29.4596354166667 13.7044270833333  C 29.3511284722222 13.8780381944444  29.3348524305556 14.0787760416667  29.4108072916667 14.306640625  C 29.4867621527778 14.5345052083333  29.6006944444444 14.7135416666667  29.7526041666667 14.84375  C 29.7960069444444 14.8871527777778  29.8122829861111 14.9305555555556  29.8014322916667 14.9739583333333  C 29.7905815972222 15.0173611111111  29.7526041666667 15.0661892361111  29.6875 15.1204427083333  C 29.6223958333333 15.1746961805556  29.5627170138889 15.2180989583333  29.5084635416667 15.2506510416667  C 29.4542100694444 15.283203125  29.3836805555556 15.3211805555556  29.296875 15.3645833333333  L 29.19921875 15.4296875  C 28.9605034722222 15.5381944444444  28.7380642361111 15.4730902777778  28.5319010416667 15.234375  C 28.3257378472222 14.9956597222222  28.1792534722222 14.7135416666667  28.0924479166667 14.3880208333333  C 27.9405381944444 13.8454861111111  27.7669270833333 13.5199652777778  27.5716145833333 13.4114583333333  C 27.0724826388889 13.2378472222222  26.7578125 13.2486979166667  26.6276041666667 13.4440104166667  C 26.5190972222222 13.1618923611111  26.07421875 12.8797743055556  25.29296875 12.59765625  C 24.7504340277778 12.40234375  24.12109375 12.3589409722222  23.4049479166667 12.4674479166667  C 23.53515625 12.4457465277778  23.53515625 12.2829861111111  23.4049479166667 11.9791666666667  C 23.2530381944444 11.6536458333333  23.046875 11.5234375  22.7864583333333 11.5885416666667  C 22.8515625 11.4583333333333  22.8949652777778 11.2684461805556  22.9166666666667 11.0188802083333  C 22.9383680555556 10.7693142361111  22.94921875 10.6228298611111  22.94921875 10.5794270833333  C 23.0143229166667 10.2973090277778  23.14453125 10.0477430555556  23.33984375 9.83072916666667  C 23.3615451388889 9.80902777777777  23.4375 9.716796875  23.5677083333333 9.55403645833333  C 23.6979166666667 9.39127604166667  23.8009982638889 9.24479166666667  23.876953125 9.11458333333333  C 23.9529079861111 8.984375  23.9583333333333 8.91927083333333  23.8932291666667 8.91927083333333  C 24.6527777777778 9.00607638888888  25.1953125 8.88671875  25.5208333333333 8.56119791666667  C 25.6293402777778 8.45269097222222  25.7541232638889 8.26822916666667  25.8951822916667 8.0078125  C 26.0362413194444 7.74739583333333  26.1501736111111 7.56293402777777  26.2369791666667 7.45442708333333  C 26.4322916666667 7.32421875  26.5842013888889 7.26453993055555  26.6927083333333 7.275390625  C 26.8012152777778 7.28624131944444  26.9585503472222 7.34592013888888  27.1647135416667 7.45442708333333  C 27.3708767361111 7.56293402777777  27.5282118055556 7.6171875  27.63671875 7.6171875  C 27.9405381944444 7.63888888888888  28.1087239583333 7.51953125  28.1412760416667 7.25911458333333  C 28.173828125 6.99869791666667  28.0924479166667 6.78168402777777  27.8971354166667 6.60807291666667  C 28.1575520833333 6.62977430555555  28.1901041666667 6.4453125  27.9947916666667 6.0546875  C 27.9079861111111 5.90277777777777  27.8211805555556 5.80512152777777  27.734375 5.76171875  C 27.4739583333333 5.67491319444444  27.1809895833333 5.72916666666667  26.85546875 5.92447916666667  C 26.6818576388889 6.01128472222222  26.7035590277778 6.09809027777777  26.9205729166667 6.18489583333333  C 26.8988715277778 6.16319444444444  26.7957899305556 6.27712673611111  26.611328125 6.52669270833333  C 26.4268663194444 6.77625868055555  26.2478298611111 6.96614583333333  26.07421875 7.09635416666667  C 25.9006076388889 7.2265625  25.7269965277778 7.17230902777777  25.5533854166667 6.93359375  C 25.5316840277778 6.91189236111111  25.4720052083333 6.76540798611111  25.3743489583333 6.494140625  C 25.2766927083333 6.22287326388888  25.1736111111111 6.07638888888888  25.0651041666667 6.0546875  C 24.8914930555556 6.0546875  24.7178819444444 6.21744791666667  24.5442708333333 6.54296875  C 24.609375 6.36935763888888  24.4900173611111 6.20659722222222  24.1861979166667 6.0546875  C 23.8823784722222 5.90277777777777  23.6219618055556 5.81597222222222  23.4049479166667 5.79427083333333  C 23.8172743055556 5.53385416666667  23.73046875 5.24088541666667  23.14453125 4.91536458333333  C 22.9926215277778 4.82855902777777  22.7701822916667 4.77430555555555  22.4772135416667 4.75260416666667  C 22.1842447916667 4.73090277777777  21.97265625 4.77430555555555  21.8424479166667 4.8828125  C 21.7339409722222 5.03472222222222  21.6742621527778 5.15950520833333  21.6634114583333 5.25716145833333  C 21.6525607638889 5.35481770833333  21.7068142361111 5.44162326388888  21.826171875 5.517578125  C 21.9455295138889 5.59353298611111  22.0594618055556 5.65321180555555  22.16796875 5.69661458333333  C 22.2764756944444 5.74001736111111  22.4012586805556 5.78342013888888  22.5423177083333 5.82682291666667  C 22.6833767361111 5.87022569444444  22.7756076388889 5.90277777777777  22.8190104166667 5.92447916666667  C 23.1228298611111 6.14149305555555  23.2096354166667 6.29340277777777  23.0794270833333 6.38020833333333  C 23.0360243055556 6.40190972222222  22.9437934027778 6.43988715277777  22.802734375 6.494140625  C 22.6616753472222 6.54839409722222  22.5368923611111 6.59722222222222  22.4283854166667 6.640625  C 22.3198784722222 6.68402777777777  22.2547743055556 6.72743055555555  22.2330729166667 6.77083333333333  C 22.16796875 6.85763888888888  22.16796875 7.00954861111111  22.2330729166667 7.2265625  C 22.2981770833333 7.44357638888888  22.2764756944444 7.59548611111111  22.16796875 7.68229166666667  C 22.0594618055556 7.57378472222222  21.9618055555556 7.38389756944444  21.875 7.11263020833333  C 21.7881944444444 6.84136284722222  21.7122395833333 6.66232638888888  21.6471354166667 6.57552083333333  C 21.7990451388889 6.77083333333333  21.5277777777778 6.8359375  20.8333333333333 6.77083333333333  L 20.5078125 6.73828125  C 20.4210069444444 6.73828125  20.2473958333333 6.75998263888888  19.9869791666667 6.80338541666667  C 19.7265625 6.84678819444444  19.5041232638889 6.85763888888888  19.3196614583333 6.8359375  C 19.1351996527778 6.81423611111111  18.9887152777778 6.72743055555555  18.8802083333333 6.57552083333333  C 18.7934027777778 6.40190972222222  18.7934027777778 6.18489583333333  18.8802083333333 5.92447916666667  C 18.9019097222222 5.83767361111111  18.9453125 5.81597222222222  19.0104166666667 5.859375  C 18.9236111111111 5.79427083333333  18.8042534722222 5.69118923611111  18.65234375 5.55013020833333  C 18.5004340277778 5.40907118055555  18.3919270833333 5.31684027777777  18.3268229166667 5.2734375  C 17.3285590277778 5.59895833333333  16.30859375 6.04383680555555  15.2669270833333 6.60807291666667  C 15.3971354166667 6.62977430555555  15.52734375 6.61892361111111  15.6575520833333 6.57552083333333  C 15.7660590277778 6.53211805555555  15.9071180555556 6.46158854166667  16.0807291666667 6.36393229166667  C 16.2543402777778 6.26627604166667  16.3628472222222 6.20659722222222  16.40625 6.18489583333333  C 17.1440972222222 5.88107638888888  17.5998263888889 5.80512152777777  17.7734375 5.95703125  L 17.9361979166667 5.79427083333333  C 18.2400173611111 6.14149305555555  18.45703125 6.41276041666667  18.5872395833333 6.60807291666667  C 18.4353298611111 6.52126736111111  18.1098090277778 6.51041666666667  17.6106770833333 6.57552083333333  C 17.1766493055556 6.70572916666667  16.9379340277778 6.8359375  16.89453125 6.96614583333333  C 17.0464409722222 7.2265625  17.1006944444444 7.421875  17.0572916666667 7.55208333333333  C 16.9704861111111 7.48697916666667  16.845703125 7.37847222222222  16.6829427083333 7.2265625  C 16.5201822916667 7.07465277777777  16.3628472222222 6.95529513888888  16.2109375 6.86848958333333  C 16.0590277777778 6.78168402777777  15.8962673611111 6.72743055555555  15.72265625 6.70572916666667  C 15.3754340277778 6.70572916666667  15.13671875 6.71657986111111  15.0065104166667 6.73828125  C 11.8381076388889 8.47439236111111  9.28819444444445 10.8832465277778  7.35677083333333 13.96484375  C 7.50868055555556 14.1167534722222  7.63888888888889 14.2035590277778  7.74739583333333 14.2252604166667  C 7.83420138888889 14.2469618055556  7.88845486111111 14.3446180555556  7.91015625 14.5182291666667  C 7.93185763888889 14.6918402777778  7.958984375 14.8111979166667  7.99153645833333 14.8763020833333  C 8.02408854166667 14.94140625  8.14887152777778 14.9088541666667  8.36588541666667 14.7786458333333  C 8.56119791666667 14.9522569444444  8.59375 15.1584201388889  8.46354166666667 15.3971354166667  C 8.48524305555556 15.3754340277778  8.96267361111111 15.6684027777778  9.89583333333333 16.2760416666667  C 10.3081597222222 16.6449652777778  10.5360243055556 16.8728298611111  10.5794270833333 16.9596354166667  C 10.64453125 17.1983506944444  10.5360243055556 17.3936631944444  10.25390625 17.5455729166667  C 10.2322048611111 17.5021701388889  10.1345486111111 17.4045138888889  9.9609375 17.2526041666667  C 9.78732638888889 17.1006944444444  9.68967013888889 17.0572916666667  9.66796875 17.1223958333333  C 9.60286458333333 17.2309027777778  9.60828993055556 17.431640625  9.68424479166667 17.724609375  C 9.76019965277778 18.017578125  9.87413194444445 18.1532118055556  10.0260416666667 18.1315104166667  C 9.87413194444445 18.1315104166667  9.77105034722222 18.3051215277778  9.716796875 18.65234375  C 9.66254340277778 18.9995659722222  9.63541666666667 19.384765625  9.63541666666667 19.8079427083333  C 9.63541666666667 20.2311197916667  9.62456597222222 20.4861111111111  9.60286458333333 20.5729166666667  L 9.66796875 20.60546875  C 9.60286458333333 20.8658854166667  9.66254340277778 21.240234375  9.84700520833333 21.728515625  C 10.0314670138889 22.216796875  10.2647569444444 22.4283854166667  10.546875 22.36328125  C 10.2647569444444 22.4283854166667  10.4817708333333 22.8949652777778  11.1979166666667 23.7630208333333  C 11.328125 23.9366319444444  11.4149305555556 24.0342881944444  11.4583333333333 24.0559895833333  C 11.5234375 24.0993923611111  11.6536458333333 24.1807725694444  11.8489583333333 24.3001302083333  C 12.0442708333333 24.4194878472222  12.20703125 24.5279947916667  12.3372395833333 24.6256510416667  C 12.4674479166667 24.7233072916667  12.5759548611111 24.8372395833333  12.6627604166667 24.9674479166667  C 12.7495659722222 25.0759548611111  12.8580729166667 25.3200954861111  12.98828125 25.6998697916667  C 13.1184895833333 26.0796440972222  13.2703993055556 26.3346354166667  13.4440104166667 26.46484375  C 13.4006076388889 26.5950520833333  13.5036892361111 26.8120659722222  13.7532552083333 27.1158854166667  C 14.0028211805556 27.4197048611111  14.1167534722222 27.6692708333333  14.0950520833333 27.8645833333333  C 14.0733506944444 27.8645833333333  14.0462239583333 27.8754340277778  14.013671875 27.8971354166667  C 13.9811197916667 27.9188368055556  13.9539930555556 27.9296875  13.9322916666667 27.9296875  C 13.9973958333333 28.0815972222222  14.1655815972222 28.2335069444444  14.4368489583333 28.3854166666667  C 14.7081163194444 28.5373263888889  14.8763020833333 28.6783854166667  14.94140625 28.80859375  C 14.9631076388889 28.8736979166667  14.9848090277778 28.9822048611111  15.0065104166667 29.1341145833333  C 15.0282118055556 29.2860243055556  15.0607638888889 29.4053819444444  15.1041666666667 29.4921875  C 15.1475694444444 29.5789930555556  15.234375 29.6006944444444  15.3645833333333 29.5572916666667  C 15.4079861111111 29.1232638888889  15.1475694444444 28.4505208333333  14.5833333333333 27.5390625  C 14.2578125 26.9965277777778  14.0733506944444 26.6818576388889  14.0299479166667 26.5950520833333  C 13.96484375 26.4865451388889  13.9051649305556 26.318359375  13.8509114583333 26.0904947916667  C 13.7966579861111 25.8626302083333  13.7478298611111 25.7052951388889  13.7044270833333 25.6184895833333  C 13.7478298611111 25.6184895833333  13.8129340277778 25.634765625  13.8997395833333 25.6673177083333  C 13.9865451388889 25.6998697916667  14.0787760416667 25.7378472222222  14.1764322916667 25.78125  C 14.2740885416667 25.8246527777778  14.35546875 25.8680555555556  14.4205729166667 25.9114583333333  C 14.4856770833333 25.9548611111111  14.5073784722222 25.9874131944444  14.4856770833333 26.0091145833333  C 14.4205729166667 26.1610243055556  14.4422743055556 26.3509114583333  14.55078125 26.5787760416667  C 14.6592881944444 26.806640625  14.7894965277778 27.0073784722222  14.94140625 27.1809895833333  C 15.0933159722222 27.3546006944444  15.2777777777778 27.5607638888889  15.4947916666667 27.7994791666667  C 15.7118055555556 28.0381944444444  15.8420138888889 28.1792534722222  15.8854166666667 28.22265625  C 16.015625 28.3528645833333  16.1675347222222 28.564453125  16.3411458333333 28.857421875  C 16.5147569444444 29.150390625  16.5147569444444 29.296875  16.3411458333333 29.296875  C 16.5364583333333 29.296875  16.7534722222222 29.4108072916667  16.9921875 29.638671875  C 17.2309027777778 29.8665364583333  17.4153645833333 30.078125  17.5455729166667 30.2734375  C 17.6540798611111 30.4470486111111  17.7408854166667 30.7291666666667  17.8059895833333 31.1197916666667  C 17.87109375 31.5104166666667  17.9253472222222 31.7708333333333  17.96875 31.9010416666667  C 18.0121527777778 32.0529513888889  18.1043836805556 32.1994357638889  18.2454427083333 32.3404947916667  C 18.3865017361111 32.4815538194444  18.5221354166667 32.5846354166667  18.65234375 32.6497395833333  L 19.1731770833333 32.91015625  C 19.1731770833333 32.91015625  19.3142361111111 32.9861111111111  19.5963541666667 33.1380208333333  C 19.7048611111111 33.1814236111111  19.9055989583333 33.2953559027778  20.1985677083333 33.4798177083333  C 20.4915364583333 33.6642795138889  20.7248263888889 33.7890625  20.8984375 33.8541666666667  C 21.1154513888889 33.9409722222222  21.2890625 33.984375  21.4192708333333 33.984375  C 21.5494791666667 33.984375  21.7068142361111 33.9572482638889  21.8912760416667 33.9029947916667  C 22.0757378472222 33.8487413194444  22.2222222222222 33.8107638888889  22.3307291666667 33.7890625  C 22.65625 33.7456597222222  22.9709201388889 33.9084201388889  23.2747395833333 34.27734375  C 23.5785590277778 34.6462673611111  23.8064236111111 34.8741319444444  23.9583333333333 34.9609375  C 24.7395833333333 35.3732638888889  25.3363715277778 35.4926215277778  25.7486979166667 35.3190104166667  C 25.7052951388889 35.3407118055556  25.7107204861111 35.4220920138889  25.7649739583333 35.5631510416667  C 25.8192274305556 35.7042100694444  25.9060329861111 35.8723958333333  26.025390625 36.0677083333333  C 26.1447482638889 36.2630208333333  26.2424045138889 36.4203559027778  26.318359375 36.5397135416667  C 26.3943142361111 36.6590711805556  26.4539930555556 36.7513020833333  26.4973958333333 36.81640625  C 26.6059027777778 36.9466145833333  26.8012152777778 37.109375  27.0833333333333 37.3046875  C 27.3654513888889 37.5  27.5607638888889 37.6627604166667  27.6692708333333 37.79296875  C 27.7994791666667 37.7061631944444  27.8754340277778 37.6085069444444  27.8971354166667 37.5  C 27.83203125 37.6736111111111  27.9079861111111 37.890625  28.125 38.1510416666667  C 28.3420138888889 38.4114583333333  28.5373263888889 38.5199652777778  28.7109375 38.4765625  C 29.0147569444444 38.4114583333333  29.1666666666667 38.0642361111111  29.1666666666667 37.4348958333333  C 28.4939236111111 37.7604166666667  27.9622395833333 37.5651041666667  27.5716145833333 36.8489583333333  C 27.5716145833333 36.8272569444444  27.5444878472222 36.767578125  27.490234375 36.669921875  C 27.4359809027778 36.572265625  27.392578125 36.4800347222222  27.3600260416667 36.3932291666667  C 27.3274739583333 36.3064236111111  27.3003472222222 36.2141927083333  27.2786458333333 36.1165364583333  C 27.2569444444444 36.0188802083333  27.2569444444444 35.9375  27.2786458333333 35.8723958333333  C 27.3003472222222 35.8072916666667  27.3546006944444 35.7747395833333  27.44140625 35.7747395833333  C 27.63671875 35.7747395833333  27.7452256944444 35.7367621527778  27.7669270833333 35.6608072916667  C 27.7886284722222 35.5848524305556  27.7669270833333 35.44921875  27.7018229166667 35.25390625  C 27.63671875 35.05859375  27.5933159722222 34.9175347222222  27.5716145833333 34.8307291666667  C 27.5499131944444 34.6571180555556  27.4305555555556 34.4401041666667  27.2135416666667 34.1796875  C 26.9965277777778 33.9192708333333  26.8663194444444 33.7565104166667  26.8229166666667 33.69140625  C 26.7144097222222 33.88671875  26.5407986111111 33.9735243055556  26.3020833333333 33.9518229166667  C 26.0633680555556 33.9301215277778  25.8897569444444 33.8324652777778  25.78125 33.6588541666667  C 25.78125 33.6805555555556  25.7649739583333 33.740234375  25.732421875 33.837890625  C 25.6998697916667 33.935546875  25.68359375 34.0060763888889  25.68359375 34.0494791666667  C 25.4014756944444 34.0494791666667  25.2387152777778 34.0386284722222  25.1953125 34.0169270833333  C 25.2170138888889 33.9518229166667  25.244140625 33.7619357638889  25.2766927083333 33.447265625  C 25.3092447916667 33.1325954861111  25.3472222222222 32.8884548611111  25.390625 32.71484375  C 25.4123263888889 32.6280381944444  25.4720052083333 32.4978298611111  25.5696614583333 32.32421875  C 25.6673177083333 32.1506076388889  25.7486979166667 31.9932725694444  25.8138020833333 31.8522135416667  C 25.87890625 31.7111545138889  25.9223090277778 31.5755208333333  25.9440104166667 31.4453125  C 25.9657118055556 31.3151041666667  25.9168836805556 31.2120225694444  25.7975260416667 31.1360677083333  C 25.6781684027778 31.0601128472222  25.48828125 31.0329861111111  25.2278645833333 31.0546875  C 24.8155381944444 31.0763888888889  24.5334201388889 31.2934027777778  24.3815104166667 31.7057291666667  C 24.3598090277778 31.7708333333333  24.3272569444444 31.884765625  24.2838541666667 32.0475260416667  C 24.2404513888889 32.2102864583333  24.1861979166667 32.3350694444444  24.12109375 32.421875  C 24.0559895833333 32.5086805555556  23.9583333333333 32.5846354166667  23.828125 32.6497395833333  C 23.6762152777778 32.71484375  23.4157986111111 32.7365451388889  23.046875 32.71484375  C 22.6779513888889 32.6931423611111  22.4175347222222 32.6388888888889  22.265625 32.5520833333333  C 21.9835069444444 32.3784722222222  21.7393663194444 32.0638020833333  21.533203125 31.6080729166667  C 21.3270399305556 31.15234375  21.2239583333333 30.7508680555555  21.2239583333333 30.4036458333333  C 21.2239583333333 30.1866319444444  21.2510850694444 29.8990885416667  21.3053385416667 29.541015625  C 21.3595920138889 29.1829427083333  21.3921440972222 28.9116753472222  21.4029947916667 28.7272135416667  C 21.4138454861111 28.5427517361111  21.3541666666667 28.2769097222222  21.2239583333333 27.9296875  C 21.2890625 27.8862847222222  21.38671875 27.783203125  21.5169270833333 27.6204427083333  C 21.6471354166667 27.4576822916667  21.7556423611111 27.34375  21.8424479166667 27.2786458333333  C 21.8858506944444 27.2569444444444  21.9346788194444 27.2406684027778  21.9889322916667 27.2298177083333  C 22.0431857638889 27.2189670138889  22.0920138888889 27.2189670138889  22.1354166666667 27.2298177083333  C 22.1788194444444 27.2406684027778  22.2222222222222 27.2243923611111  22.265625 27.1809895833333  C 22.3090277777778 27.1375868055556  22.3415798611111 27.0724826388889  22.36328125 26.9856770833333  C 22.3415798611111 26.9639756944444  22.2981770833333 26.9314236111111  22.2330729166667 26.8880208333333  C 22.16796875 26.8229166666667  22.1245659722222 26.7903645833333  22.1028645833333 26.7903645833333  C 22.2547743055556 26.85546875  22.5640190972222 26.8391927083333  23.0305989583333 26.7415364583333  C 23.4971788194444 26.6438802083333  23.7955729166667 26.66015625  23.92578125 26.7903645833333  C 24.2513020833333 27.0290798611111  24.4900173611111 27.0073784722222  24.6419270833333 26.7252604166667  C 24.6419270833333 26.7035590277778  24.6148003472222 26.6004774305556  24.560546875 26.416015625  C 24.5062934027778 26.2315538194444  24.5008680555556 26.0850694444444  24.5442708333333 25.9765625  C 24.6527777777778 26.5625  24.9674479166667 26.66015625  25.48828125 26.26953125  C 25.5533854166667 26.3346354166667  25.7215711805556 26.3888888888889  25.9928385416667 26.4322916666667  C 26.2641059027778 26.4756944444444  26.4539930555556 26.5299479166667  26.5625 26.5950520833333  C 26.6276041666667 26.6384548611111  26.7035590277778 26.6981336805556  26.7903645833333 26.7740885416667  C 26.8771701388889 26.8500434027778  26.9368489583333 26.8988715277778  26.9694010416667 26.9205729166667  C 27.001953125 26.9422743055556  27.0562065972222 26.9368489583333  27.1321614583333 26.904296875  C 27.2081163194444 26.8717447916667  27.3003472222222 26.8012152777778  27.4088541666667 26.6927083333333  C 27.6258680555556 26.9965277777778  27.7560763888889 27.2569444444444  27.7994791666667 27.4739583333333  C 28.0381944444444 28.3420138888889  28.2443576388889 28.8194444444444  28.41796875 28.90625  C 28.5698784722222 28.9713541666667  28.6892361111111 28.9930555555556  28.7760416666667 28.9713541666667  C 28.8628472222222 28.9496527777778  28.9116753472222 28.8465711805556  28.9225260416667 28.662109375  C 28.9333767361111 28.4776475694444  28.9333767361111 28.3257378472222  28.9225260416667 28.2063802083333  C 28.9116753472222 28.0870225694444  28.8953993055556 27.9513888888889  28.8736979166667 27.7994791666667  L 28.8411458333333 27.5390625  L 28.8411458333333 26.953125  L 28.80859375 26.6927083333333  C 28.4830729166667 26.6276041666667  28.2823350694444 26.4973958333333  28.2063802083333 26.3020833333333  C 28.1304253472222 26.1067708333333  28.1467013888889 25.9060329861111  28.2552083333333 25.6998697916667  C 28.3637152777778 25.4937065972222  28.5264756944444 25.29296875  28.7434895833333 25.09765625  C 28.7651909722222 25.0759548611111  28.8519965277778 25.0379774305556  29.00390625 24.9837239583333  C 29.1558159722222 24.9294704861111  29.3240017361111 24.8589409722222  29.5084635416667 24.7721354166667  C 29.6929253472222 24.6853298611111  29.8285590277778 24.5985243055556  29.9153645833333 24.51171875  C 30.37109375 24.0993923611111  30.5338541666667 23.7196180555556  30.4036458333333 23.3723958333333  C 30.5555555555556 23.3723958333333  30.6749131944444 23.2747395833333  30.76171875 23.0794270833333  C 30.7400173611111 23.0794270833333  30.6857638888889 23.046875  30.5989583333333 22.9817708333333  C 30.5121527777778 22.9166666666667  30.4307725694444 22.8624131944444  30.3548177083333 22.8190104166667  C 30.2788628472222 22.7756076388889  30.2300347222222 22.75390625  30.2083333333333 22.75390625  C 30.4036458333333 22.6453993055556  30.4253472222222 22.4717881944444  30.2734375 22.2330729166667  C 30.3819444444444 22.16796875  30.4633246527778 22.0486111111111  30.517578125 21.875  C 30.5718315972222 21.7013888888889  30.6532118055556 21.5928819444444  30.76171875 21.5494791666667  C 30.95703125 21.8098958333333  31.1848958333333 21.8315972222222  31.4453125 21.6145833333333  C 31.6189236111111 21.4409722222222  31.6297743055556 21.2673611111111  31.4778645833333 21.09375  C 31.5863715277778 20.9418402777778  31.8088107638889 20.8279079861111  32.1451822916667 20.751953125  C 32.4815538194445 20.6759982638889  32.6822916666667 20.5729166666667  32.7473958333333 20.4427083333333  C 32.8993055555556 20.4861111111111  32.9861111111111 20.4644097222222  33.0078125 20.3776041666667  C 33.0295138888889 20.2907986111111  33.0403645833333 20.1605902777778  33.0403645833333 19.9869791666667  C 33.0403645833333 19.8133680555556  33.0729166666667 19.6831597222222  33.1380208333333 19.5963541666667  C 33.2248263888889 19.4878472222222  33.3875868055556 19.3901909722222  33.6263020833333 19.3033854166667  C 33.8650173611111 19.2165798611111  34.0060763888889 19.1623263888889  34.0494791666667 19.140625  L 34.6028645833333 18.7825520833333  C 34.66796875 18.6957465277778  34.66796875 18.65234375  34.6028645833333 18.65234375  C 34.9934895833333 18.6957465277778  35.3298611111111 18.5763888888889  35.6119791666667 18.2942708333333  C 35.8289930555556 18.0555555555556  35.7638888888889 17.8385416666667  35.4166666666667 17.6432291666667  C 35.4817708333333 17.5130208333333  35.44921875 17.4099392361111  35.3190104166667 17.333984375  C 35.1888020833333 17.2580295138889  35.0260416666667 17.1983506944444  34.8307291666667 17.1549479166667  C 34.8958333333333 17.1332465277778  35.0206163194445 17.1278211805556  35.205078125 17.138671875  C 35.3895399305556 17.1495225694444  35.5034722222222 17.1332465277778  35.546875 17.08984375  C 35.8723958333333 16.8728298611111  35.7964409722222 16.69921875  35.3190104166667 16.5690104166667  Z M 28.5481770833333 44.9869791666667  C 28.5481770833333 45.1171875  28.5698784722222 45.2907986111111  28.61328125 45.5078125  C 33.0837673611111 44.7265625  36.8923611111111 42.67578125  40.0390625 39.35546875  C 39.9739583333333 39.2903645833333  39.8383246527778 39.2415364583333  39.6321614583333 39.208984375  C 39.4259982638889 39.1764322916667  39.2903645833333 39.1384548611111  39.2252604166667 39.0950520833333  C 38.8346354166667 38.9431423611111  38.57421875 38.8563368055556  38.4440104166667 38.8346354166667  C 38.4657118055556 38.6827256944444  38.4385850694445 38.5416666666667  38.3626302083333 38.4114583333333  C 38.2866753472222 38.28125  38.1998697916667 38.18359375  38.1022135416667 38.1184895833333  C 38.0045572916667 38.0533854166667  37.8689236111111 37.9665798611111  37.6953125 37.8580729166667  C 37.5217013888889 37.7495659722222  37.40234375 37.6736111111111  37.3372395833333 37.6302083333333  C 37.2938368055556 37.5868055555556  37.2178819444445 37.5217013888889  37.109375 37.4348958333333  C 37.0008680555556 37.3480902777778  36.9249131944445 37.2884114583333  36.8815104166667 37.255859375  C 36.8381076388889 37.2233072916667  36.7567274305556 37.1744791666667  36.6373697916667 37.109375  C 36.5180121527778 37.0442708333333  36.42578125 37.0225694444444  36.3606770833333 37.0442708333333  C 36.2955729166667 37.0659722222222  36.1870659722222 37.0768229166667  36.03515625 37.0768229166667  L 35.9375 37.109375  C 35.8723958333333 37.1310763888889  35.8127170138889 37.158203125  35.7584635416667 37.1907552083333  C 35.7042100694445 37.2233072916667  35.64453125 37.255859375  35.5794270833333 37.2884114583333  C 35.5143229166667 37.3209635416667  35.4709201388889 37.353515625  35.44921875 37.3860677083333  C 35.4275173611111 37.4186197916667  35.4275173611111 37.4457465277778  35.44921875 37.4674479166667  C 34.9934895833333 37.0985243055556  34.6028645833333 36.8598090277778  34.27734375 36.7513020833333  C 34.1688368055556 36.7296006944444  34.0494791666667 36.669921875  33.9192708333333 36.572265625  C 33.7890625 36.474609375  33.6751302083333 36.3986545138889  33.5774739583333 36.3444010416667  C 33.4798177083333 36.2901475694444  33.3713107638889 36.2738715277778  33.251953125 36.2955729166667  C 33.1325954861111 36.3172743055556  33.0078125 36.3932291666667  32.8776041666667 36.5234375  C 32.7690972222222 36.6319444444444  32.7039930555556 36.7947048611111  32.6822916666667 37.01171875  C 32.6605902777778 37.2287326388889  32.6388888888889 37.3697916666667  32.6171875 37.4348958333333  C 32.4652777777778 37.3263888888889  32.4652777777778 37.1365017361111  32.6171875 36.865234375  C 32.7690972222222 36.5939670138889  32.7907986111111 36.3932291666667  32.6822916666667 36.2630208333333  C 32.6171875 36.1328125  32.5032552083333 36.083984375  32.3404947916667 36.1165364583333  C 32.177734375 36.1490885416667  32.0475260416667 36.1979166666667  31.9498697916667 36.2630208333333  C 31.8522135416667 36.328125  31.7274305555556 36.4203559027778  31.5755208333333 36.5397135416667  C 31.4236111111111 36.6590711805556  31.3259548611111 36.7296006944444  31.2825520833333 36.7513020833333  C 31.2391493055556 36.7730034722222  31.1469184027778 36.8326822916667  31.005859375 36.9303385416667  C 30.8648003472222 37.0279947916667  30.7725694444444 37.109375  30.7291666666667 37.1744791666667  C 30.6640625 37.2612847222222  30.5989583333333 37.3914930555556  30.5338541666667 37.5651041666667  C 30.46875 37.7387152777778  30.4144965277778 37.8580729166667  30.37109375 37.9231770833333  C 30.3276909722222 37.8363715277778  30.2029079861111 37.7658420138889  29.9967447916667 37.7115885416667  C 29.7905815972222 37.6573350694444  29.6875 37.59765625  29.6875 37.5325520833333  C 29.7309027777778 37.7495659722222  29.7743055555556 38.1293402777778  29.8177083333333 38.671875  C 29.8611111111111 39.2144097222222  29.9153645833333 39.6267361111111  29.98046875 39.9088541666667  C 30.1323784722222 40.5815972222222  30.0021701388889 41.1024305555556  29.58984375 41.4713541666667  C 29.00390625 42.0138888888889  28.6892361111111 42.4479166666667  28.6458333333333 42.7734375  C 28.5590277777778 43.2508680555556  28.6892361111111 43.5329861111111  29.0364583333333 43.6197916666667  C 29.0364583333333 43.7717013888889  28.9496527777778 43.994140625  28.7760416666667 44.287109375  C 28.6024305555556 44.580078125  28.5264756944444 44.8133680555556  28.5481770833333 44.9869791666667  Z " fill-rule="nonzero" fill="#d7d7d7" stroke="none" transform="matrix(1 0 0 1 14 71 )" />
  </g>
</svg>